<?xml version="1.0" encoding="UTF-8" ?>
<!DOCTYPE svg PUBLIC "-//W3C//DTD SVG 1.1//EN" "http://www.w3.org/Graphics/SVG/1.1/DTD/svg11.dtd">
<svg width="294pt" height="62pt" viewBox="0 0 294 62" version="1.1" xmlns="http://www.w3.org/2000/svg">
<path fill="#ffffff" d=" M 0.00 0.00 L 294.00 0.00 L 294.00 62.00 L 0.00 62.00 L 0.00 0.00 Z" />
<path fill="#000000" d=" M 53.98 18.93 C 53.79 13.78 57.58 8.18 63.05 7.89 C 69.01 7.29 75.02 7.77 81.00 7.60 C 84.61 7.71 88.57 7.24 91.81 9.17 C 95.03 11.32 97.10 15.08 97.02 18.97 C 96.98 29.72 97.02 40.48 96.99 51.24 C 94.01 51.25 91.02 51.25 88.05 51.23 C 88.03 48.49 88.02 45.75 88.01 43.01 C 79.55 43.00 71.09 42.99 62.64 43.01 C 62.62 45.74 62.62 48.46 62.62 51.19 C 59.75 51.26 56.88 51.25 54.01 51.24 C 53.98 40.47 54.02 29.70 53.98 18.93 Z" />
<path fill="#f10000" d=" M 243.26 13.32 C 245.82 9.43 250.71 8.52 255.04 8.51 C 264.88 8.52 274.72 8.50 284.57 8.52 C 284.59 11.33 284.60 14.14 284.63 16.94 C 274.75 17.09 264.88 16.94 255.01 17.00 C 253.05 16.79 251.56 18.22 250.00 19.13 C 250.00 26.38 250.00 33.63 249.99 40.87 C 251.59 41.73 253.09 43.10 255.03 42.99 C 264.89 43.08 274.76 42.89 284.62 43.06 C 284.60 45.75 284.59 48.43 284.60 51.12 C 274.40 51.40 264.18 51.19 253.97 51.24 C 249.76 51.38 245.02 49.99 242.91 46.05 C 240.11 40.08 241.20 33.36 240.99 27.00 C 240.85 22.37 240.99 17.47 243.26 13.32 Z" />
<path fill="#000000" d=" M 9.01 8.52 C 11.69 8.51 14.37 8.51 17.05 8.53 C 17.13 14.30 17.07 20.06 17.10 25.83 C 20.31 25.83 23.52 25.81 26.73 25.85 C 31.47 20.43 35.75 14.58 40.38 9.07 C 43.85 7.79 47.91 8.84 51.60 8.53 C 46.26 15.89 40.13 22.65 34.68 29.94 C 40.00 37.22 46.19 43.83 51.37 51.21 C 47.68 51.26 43.99 51.34 40.30 51.09 C 36.01 45.21 31.32 39.62 26.69 34.00 C 23.48 34.00 20.28 34.00 17.08 34.01 C 17.09 39.75 17.11 45.49 17.07 51.23 C 14.38 51.25 11.70 51.25 9.01 51.24 C 8.97 37.00 8.98 22.76 9.01 8.52 Z" />
<path fill="#000000" d=" M 101.01 8.53 C 115.49 8.51 129.98 8.49 144.47 8.53 C 144.50 22.77 144.51 37.00 144.47 51.23 C 141.65 51.25 138.83 51.25 136.01 51.24 C 135.98 39.83 136.01 28.41 136.00 17.00 C 127.33 17.00 118.67 17.00 110.00 17.00 C 109.99 28.41 110.02 39.83 109.99 51.24 C 106.99 51.25 104.00 51.25 101.01 51.24 C 100.99 37.00 101.00 22.76 101.01 8.53 Z" />
<path fill="#f10000" d=" M 149.01 8.55 C 159.35 8.51 169.68 8.46 180.02 8.55 C 184.56 8.43 189.00 10.96 190.94 15.08 C 192.54 20.49 192.54 26.51 190.94 31.92 C 189.20 35.47 185.59 38.14 181.55 38.34 C 173.45 38.86 165.31 38.31 157.19 38.60 C 157.22 42.81 157.20 47.01 157.17 51.21 C 154.45 51.25 151.74 51.25 149.03 51.23 C 148.97 37.00 149.00 22.77 149.01 8.55 Z" />
<path fill="#f10000" d=" M 196.27 8.55 C 199.80 8.55 203.35 8.32 206.88 8.64 C 211.99 12.56 215.19 18.37 220.05 22.57 C 222.93 18.15 225.62 13.59 228.44 9.12 C 231.65 7.74 235.54 8.83 239.00 8.56 C 232.02 19.95 224.90 31.25 217.32 42.25 C 215.03 45.60 212.57 49.22 208.68 50.84 C 205.85 51.52 202.90 51.20 200.02 51.23 C 200.00 48.53 199.99 45.83 199.98 43.13 C 202.44 42.92 205.50 43.46 207.24 41.24 C 209.98 37.65 212.46 33.84 214.61 29.85 C 208.56 22.71 202.36 15.67 196.27 8.55 Z" />
<path fill="#ffffff" d=" M 63.11 17.34 C 66.43 15.38 70.34 16.10 74.01 16.00 C 77.60 16.09 81.22 15.77 84.80 16.16 C 86.11 16.75 88.27 17.13 87.98 19.05 C 88.13 24.03 87.98 29.01 88.01 33.99 C 79.55 34.00 71.09 34.01 62.63 33.99 C 62.80 28.44 62.16 22.84 63.11 17.34 Z" />
<path fill="#ffffff" d=" M 157.20 17.03 C 163.82 16.97 170.43 17.00 177.05 16.98 C 179.17 16.87 181.50 17.47 182.90 19.15 C 183.12 22.04 183.13 24.96 182.89 27.84 C 181.59 29.60 179.15 30.10 177.06 30.02 C 170.44 29.99 163.82 30.03 157.20 29.97 C 157.19 25.66 157.19 21.34 157.20 17.03 Z" />
</svg>
